<?xml version="1.0" encoding="utf-8"?>
<!-- Generator: Adobe Illustrator 21.1.0, SVG Export Plug-In . SVG Version: 6.00 Build 0)  -->
<svg version="1.1" id="Capa_1" xmlns="http://www.w3.org/2000/svg" xmlns:xlink="http://www.w3.org/1999/xlink" x="0px" y="0px"
	 viewBox="0 0 138 101" style="enable-background:new 0 0 138 101;" xml:space="preserve">
<style type="text/css">
	.st0{fill:#FFFFFF;}
</style>
<g>
	<g>
		<defs>
			<rect id="SVGID_1_" x="-435" y="168" width="1366" height="617"/>
		</defs>
		<clipPath id="SVGID_2_">
			<use xlink:href="#SVGID_1_"  style="overflow:visible;"/>
		</clipPath>
	</g>
</g>
<g transform="translate(0,-952.36223)">
	<path class="st0" d="M12,960.3l10.9,6.7L2.8,986.3l4.6,5.7h23l20.8,28.4l0.7,16.9l-3.7,9.6h8.6l4.5-24.6l6.5,14.5l-0.9,10h7.8
		l-2.4-28.7l23.3-3l6.5,10.3v9.8l-6.6,11.6h7.8l12.1-27.3l9.2,13.2v9.9l-2,4.2h7.8v-69.2h2.2v35.1l4.8-4.8l-2.1-2.1v-32.7h-3.2H56.2
		L37.5,971l-0.7-0.7l1.8-1.8v-4.9l-2-2l-4.1,4.1l-5.3-5.3L12,960.3L12,960.3z M36.4,973.7l23.9,2.8v27.3H42.6L36.4,973.7z
		 M98.5,976.5v8.3l-12.2,6.1h12.2v14.3l-14.3-1.2v-27.4L98.5,976.5L98.5,976.5z M62.6,976.6h19.2v27H62.6V976.6z M100.5,976.6h14.2
		v7.4h-14.2V976.6z M116.5,976.6h10.8v32.1h-10.8V976.6z M100.5,985.5h14.2l0.1,4l-22.4-0.1C92.4,989.4,100.5,985.5,100.5,985.5z
		 M100.5,990.9h14.2v5h-14.2V990.9z M100.5,997.6h14.2v13.7l-14.2-6.9V997.6z M43.4,1005.4h17v9.2H49.3L43.4,1005.4L43.4,1005.4z
		 M62.5,1005.4H82v7l-19.5,2.2V1005.4z M84.2,1005.4l16.9,1.4l12.6,5.8c0,0-29.6,0.1-29.5,0V1005.4L84.2,1005.4z M116.5,1010h10.9
		v16.4H122c0,0-5.6-8.3-5.4-8.2L116.5,1010L116.5,1010z M50.1,1015.9h10.2l-2.2,5.4h-4.3L50.1,1015.9z"/>
</g>
</svg>
