<?xml version="1.0" standalone="no"?>
<!DOCTYPE svg PUBLIC "-//W3C//DTD SVG 20010904//EN"
 "http://www.w3.org/TR/2001/REC-SVG-20010904/DTD/svg10.dtd">
<svg version="1.0" xmlns="http://www.w3.org/2000/svg"
 width="471.000000pt" height="388.000000pt" viewBox="0 0 471.000000 388.000000"
 preserveAspectRatio="xMidYMid meet">
<metadata>
Created by potrace 1.15, written by Peter Selinger 2001-2017
</metadata>
<g transform="translate(0.000000,388.000000) scale(0.100000,-0.100000)"
fill="#000000" stroke="none">
<path d="M4463 2868 l67 -32 0 -196 c0 -108 -3 -200 -7 -204 -4 -3 -14 -34
-23 -69 -12 -50 -31 -82 -94 -164 -105 -138 -116 -138 -66 -2 47 126 54 168
34 190 -9 11 -30 19 -46 19 -24 0 -28 -4 -28 -30 0 -16 -9 -76 -20 -132 -26
-136 -26 -152 5 -166 14 -6 31 -9 39 -6 8 3 43 46 78 95 38 54 64 84 66 74 2
-8 -6 -57 -18 -109 l-21 -93 -97 -36 c-195 -72 -222 -89 -222 -138 0 -38 13
-37 84 6 32 19 63 35 68 35 6 0 38 -22 72 -49 83 -64 101 -74 114 -58 6 7 18
44 26 82 9 39 18 80 21 93 3 12 12 22 20 22 14 0 15 -62 13 -505 -2 -333 0
-504 7 -502 6 2 11 184 13 510 l2 506 80 7 c69 6 80 9 80 25 0 24 -37 33 -106
25 l-54 -6 0 77 c0 45 9 110 20 153 26 100 26 140 0 147 -19 5 -20 14 -20 203
l0 197 -62 28 c-90 39 -105 41 -25 3z"/>
<path d="M183 2864 l-53 -24 0 -318 0 -317 -65 -67 -65 -67 0 -78 0 -78 25 44
c26 44 84 116 94 116 3 0 8 -243 11 -539 4 -468 7 -540 20 -544 12 -4 13 -2 3
9 -10 10 -13 84 -13 300 0 158 3 295 6 303 5 13 10 14 20 5 11 -9 16 -5 25 17
69 169 158 323 220 379 22 20 42 35 44 33 2 -2 -17 -70 -41 -153 -24 -82 -43
-157 -44 -166 0 -19 35 -52 50 -47 6 2 26 41 45 86 48 117 185 319 185 272 0
-8 -11 -45 -24 -84 -30 -86 -61 -239 -53 -259 9 -24 46 -41 52 -25 39 115 105
346 105 368 0 37 -23 60 -60 60 -24 0 -38 -12 -81 -67 -43 -57 -50 -63 -45
-38 18 83 18 110 0 127 -11 9 -32 20 -47 24 -25 6 -34 1 -75 -43 -38 -41 -130
-184 -146 -228 -2 -5 -6 -8 -9 -5 -3 3 10 59 29 124 41 141 44 194 12 223 -32
29 -63 34 -113 18 -24 -7 -46 -10 -49 -7 -10 9 -6 596 3 610 4 8 30 24 57 37
64 31 44 30 -23 -1z m26 -926 c-38 -158 -55 -214 -60 -197 -11 38 -10 325 1
353 11 29 103 93 108 76 2 -6 -20 -110 -49 -232z"/>
<path d="M3437 2573 c-4 -3 -7 -20 -7 -36 0 -46 -49 -298 -64 -332 -19 -42
-143 -184 -172 -197 -58 -27 -63 56 -9 147 26 44 95 119 102 112 2 -3 -3 -21
-11 -41 -13 -31 -13 -36 -1 -36 17 0 45 50 45 80 0 43 -88 46 -148 5 -12 -9
-60 -67 -106 -128 -84 -112 -141 -175 -151 -166 -3 3 18 77 45 164 28 88 50
165 50 172 0 7 10 13 23 13 12 0 28 4 36 9 19 12 3 34 -20 28 -22 -6 -23 6 -8
73 10 42 9 46 -17 68 -16 14 -36 22 -52 20 -28 -3 -29 -7 -52 -120 -10 -50
-14 -57 -37 -60 -35 -4 -43 -28 -9 -28 31 0 31 -2 8 -105 -15 -67 -28 -96 -81
-173 -34 -52 -65 -92 -67 -89 -2 2 12 51 32 109 42 119 41 149 -7 173 -48 26
-59 17 -83 -65 -13 -41 -32 -95 -44 -120 -24 -50 -78 -120 -93 -120 -16 0 -10
52 16 135 14 44 25 90 25 103 0 29 -34 62 -65 62 -20 0 -26 -7 -34 -37 -33
-126 -47 -243 -32 -272 6 -11 29 -26 51 -32 54 -16 80 -3 125 63 33 50 35 51
29 20 -8 -41 17 -72 58 -72 30 0 55 20 95 75 l22 30 1 -38 c0 -48 33 -65 84
-43 30 12 49 31 116 116 l19 25 1 -38 c0 -78 85 -114 155 -65 17 11 58 57 90
100 31 43 59 77 61 75 2 -2 -2 -32 -8 -66 -12 -61 -11 -64 11 -82 30 -25 48
-24 72 4 17 19 90 169 120 246 20 50 19 9 0 -93 -22 -112 -20 -133 13 -145 37
-14 55 0 94 70 40 74 52 84 52 43 0 -31 59 -94 88 -94 38 0 54 13 114 89 l60
76 -7 -58 c-4 -40 -3 -63 5 -73 22 -25 35 -15 52 41 18 57 126 245 140 245 4
0 8 -26 8 -57 l0 -58 30 45 c16 24 35 58 41 74 11 25 10 30 -6 42 -42 31 -66
12 -138 -111 -15 -26 -30 -45 -32 -43 -3 2 3 27 12 56 16 49 16 52 -2 72 -10
11 -31 20 -47 20 -26 0 -28 -3 -28 -37 -1 -88 -28 -144 -118 -245 -47 -51 -75
-60 -92 -29 -17 33 -12 48 26 71 49 31 112 113 120 157 6 31 3 39 -17 56 -29
24 -69 17 -123 -21 -28 -20 -52 -53 -88 -122 -108 -209 -135 -235 -84 -82 48
141 51 167 26 192 -11 11 -31 20 -45 20 -22 0 -34 -18 -107 -165 -46 -91 -86
-165 -90 -165 -4 0 2 30 13 68 48 168 109 415 109 441 0 16 -7 37 -16 45 -15
16 -65 22 -77 9z"/>
<path d="M2150 2445 c-95 -27 -160 -65 -234 -136 -80 -75 -97 -111 -79 -165
13 -39 33 -43 33 -7 0 63 97 163 197 204 30 12 55 20 57 18 2 -2 -10 -78 -25
-169 -16 -91 -30 -210 -31 -264 -3 -99 -3 -100 23 -115 26 -14 30 -13 110 35
45 27 104 70 131 96 43 42 48 51 48 91 0 54 -21 83 -73 101 l-39 13 75 47
c121 75 165 141 135 203 -22 47 -69 63 -183 62 -55 0 -120 -7 -145 -14z m240
-60 c20 -12 9 -46 -27 -86 -42 -47 -152 -134 -159 -126 -3 3 5 52 17 110 19
90 25 107 43 111 25 5 113 -1 126 -9z m-121 -306 c35 -12 49 -46 32 -77 -18
-34 -161 -139 -161 -118 0 5 27 138 35 173 3 12 15 23 28 26 12 2 25 5 28 6 3
0 20 -4 38 -10z"/>
<path d="M1575 2128 c-80 -44 -94 -98 -45 -166 47 -65 34 -113 -31 -116 -62
-3 -46 -66 18 -68 49 -2 74 13 104 60 37 58 37 88 -1 138 -38 51 -37 67 5 101
38 30 44 47 19 57 -23 9 -46 7 -69 -6z"/>
<path d="M1174 2070 c-92 -59 -146 -236 -93 -304 16 -21 29 -26 63 -26 38 0
48 5 84 44 74 81 113 186 92 250 -6 20 -20 41 -30 46 -30 16 -83 11 -116 -10z
m104 -66 c5 -69 -95 -249 -127 -229 -28 17 2 126 59 214 22 34 46 61 53 58 6
-2 13 -21 15 -43z"/>
<path d="M915 2050 c-65 -27 -126 -138 -128 -232 -2 -54 1 -62 26 -84 61 -53
131 -14 192 108 46 93 47 180 1 210 -14 10 -66 9 -91 -2z m90 -50 c19 -61 -96
-279 -135 -255 -19 12 -5 96 26 157 52 105 95 143 109 98z"/>
</g>
</svg>
