<?xml version="1.0" encoding="utf-8"?>
<!-- Generator: Adobe Illustrator 21.1.0, SVG Export Plug-In . SVG Version: 6.00 Build 0)  -->
<svg version="1.1" id="Capa_1" xmlns="http://www.w3.org/2000/svg" xmlns:xlink="http://www.w3.org/1999/xlink" x="0px" y="0px"
	 viewBox="0 0 341 227" style="enable-background:new 0 0 341 227;" xml:space="preserve">
<style type="text/css">
	.st0{fill:#1C1C1C;}
	.st1{fill:#FFFFFF;}
	.st2{opacity:0.1;}
	.st3{opacity:0.5;}
	.st4{fill:none;stroke:#FFFFFF;stroke-width:0.5;stroke-miterlimit:10;}
	.st5{opacity:0.7;}
	.st6{fill:none;stroke:#FFFFFF;stroke-width:2;stroke-miterlimit:10;}
	.st7{fill:none;stroke:#000000;stroke-miterlimit:10;}
	.st8{fill:#D6D6D6;}
	.st9{fill:#010506;}
	.st10{stroke:#000000;stroke-miterlimit:10;}
	.st11{fill:#1D1D1B;}
</style>
<g class="st5">
	<g>
		<path d="M172,220.7l-162-53V60.3l162-53l0.3,0.1L334,60.3v107.4l-0.9,0.3L172,220.7z"/>
	</g>
</g>
<g transform="translate(0,-952.36223)">
	<path class="st1" d="M177.8,1019.4l-0.2,0l-54.3,10.4l-12-0.8l9,9.5l-4.1,3.1l-5.8-0.3l0.6,12.3l23,5.1l11.5,6l2.4,3.3l1.8,5.4
		l-1,1.6l-0.7,4.4l11.4-0.2l0.4-4.1l-0.4-1.5l0.8-7l19.8,1.5l13.4-2.8l1.3,2.6l-4.1,6.8l-0.3,5l4.7,0l3.4-0.5l1.9-3.2l0.8-1.6
		l0.8-2.8l0.8-2.4l1.7-1.1l0.8,1.5c0,0-2.9,6.2-2.9,6.2l0.4,3.7l6.3,0l1.3-2.1l4.8-12.4l-0.9-5.5l2.6-4.2l3.9-8.4l-2-11.5l2-2.9
		l-4.2-5.2l-2.3,1.3l-16-9.2L177.8,1019.4z M178.5,1021.7h16.5l-10.2,13.9l-0.1,13.3l-27.3,0.1v-9.8v-14L178.5,1021.7z
		 M197.5,1021.8l18.5,10.9l2.5,14.4l-6.4,12.4l0.2,4.3l-5.3,3.2l-2.1-3.8l-13.8,0l-4.1-12.5l-0.1-14.9L197.5,1021.8z M155.7,1025.9
		l-0.3,23.4c0,0-14.5-1.9-14.5-1.9l0-2.5l7.6-5l3.7-13L155.7,1025.9z M150.3,1027.2l-3.9,12.1l-5.4,3.3l0-13.3L150.3,1027.2z
		 M139.1,1029.6l-0.1,18.1l-6.1,8.5l-3.5-0.6l-16.4-4.1l-0.4-7.9l4.2,0.5l6.9-5.2l-6.3-6.6l6.4,0.4L139.1,1029.6z M140.5,1049
		l14.9,2l1.3,16.5l-6.2,0.4l-3.1-4.4l-12.1-6.4L140.5,1049z M176,1051c3.1,0,6.2,0,8.9,0.1l3.7,12.5l-8.7,2.5l-20.8-1.4l-1.5-13.5
		C157.6,1051.1,166.8,1051,176,1051z M212.1,1067.2l-2.8,6.9l-4.5,0.9l2.1-5.4L212.1,1067.2z M156.6,1068.4l0.1,5.8h-2.3h-1.9
		l-1.4-5.4L156.6,1068.4z M152.1,1075.2h4.9l-0.1,2.1l-6.3,0.1l0,0L152.1,1075.2z M209,1075.4l-1.4,2.6l-3.3,0l-0.3-1.8l3.2-0.5
		L209,1075.4z"/>
	<path class="st1" d="M219.2,1025.8l2.9,2.9l2.9-5.8l-5.8-4.5l-5.8,4.5l9.5,10.6l-5.8-10.2l2.2-1l1.8,1.2L219.2,1025.8L219.2,1025.8
		z"/>
</g>
<g>
	<path class="st1" d="M154.9,156v2.6c0,1.6-0.4,2.8-1.1,3.6c-0.8,0.8-1.9,1.3-3.4,1.3c-1.5,0-2.6-0.4-3.4-1.3
		c-0.8-0.8-1.1-2-1.1-3.6v-10c0-1.6,0.4-2.8,1.1-3.6c0.8-0.8,1.9-1.3,3.4-1.3c1.5,0,2.6,0.4,3.4,1.3c0.8,0.8,1.1,2,1.1,3.6v1.9H152
		v-2.1c0-0.7-0.1-1.2-0.4-1.5c-0.3-0.3-0.7-0.4-1.1-0.4s-0.9,0.1-1.1,0.4c-0.3,0.3-0.4,0.8-0.4,1.5v10.4c0,0.7,0.1,1.2,0.4,1.5
		s0.7,0.4,1.1,0.4s0.9-0.1,1.1-0.4c0.3-0.3,0.4-0.8,0.4-1.5V156H154.9z"/>
	<path class="st1" d="M159.8,152.1h4.2v2.8h-4.2v5.6h5.2v2.8h-8.3v-19.3h8.3v2.8h-5.2V152.1z"/>
	<path class="st1" d="M173.2,163.2c0-0.1-0.1-0.2-0.1-0.4c0-0.1-0.1-0.2-0.1-0.4s0-0.4-0.1-0.6c0-0.3,0-0.6,0-1v-3
		c0-0.9-0.2-1.5-0.5-1.9c-0.3-0.4-0.8-0.6-1.5-0.6h-1v7.9h-3v-19.3h4.6c1.6,0,2.7,0.4,3.4,1.1c0.7,0.7,1.1,1.8,1.1,3.3v1.5
		c0,2-0.7,3.3-2,3.9c0.8,0.3,1.3,0.8,1.6,1.5c0.3,0.7,0.4,1.6,0.4,2.6v3c0,0.5,0,0.9,0.1,1.3c0,0.4,0.1,0.7,0.3,1.1H173.2z
		 M169.9,146.7v5.9h1.2c0.6,0,1-0.1,1.3-0.4s0.5-0.8,0.5-1.6v-1.9c0-0.7-0.1-1.2-0.4-1.5s-0.6-0.5-1.2-0.5H169.9z"/>
	<path class="st1" d="M178,143.9h4.8c1.5,0,2.7,0.4,3.4,1.2c0.7,0.8,1.1,2,1.1,3.6v9.8c0,1.6-0.4,2.7-1.1,3.6s-1.9,1.2-3.4,1.2H178
		V143.9z M181,146.7v13.8h1.7c0.5,0,0.9-0.1,1.1-0.4c0.3-0.3,0.4-0.8,0.4-1.5v-10c0-0.7-0.1-1.2-0.4-1.5c-0.3-0.3-0.7-0.4-1.1-0.4
		H181z"/>
	<path class="st1" d="M188.9,148.6c0-1.6,0.4-2.8,1.2-3.6c0.8-0.8,1.9-1.3,3.4-1.3c1.5,0,2.6,0.4,3.4,1.3c0.8,0.8,1.2,2,1.2,3.6v10
		c0,1.6-0.4,2.8-1.2,3.6c-0.8,0.8-1.9,1.3-3.4,1.3c-1.5,0-2.6-0.4-3.4-1.3c-0.8-0.8-1.2-2-1.2-3.6V148.6z M192,158.8
		c0,0.7,0.1,1.2,0.4,1.5c0.3,0.3,0.7,0.4,1.1,0.4s0.9-0.1,1.1-0.4c0.3-0.3,0.4-0.8,0.4-1.5v-10.4c0-0.7-0.1-1.2-0.4-1.5
		c-0.3-0.3-0.7-0.4-1.1-0.4s-0.9,0.1-1.1,0.4c-0.3,0.3-0.4,0.8-0.4,1.5V158.8z"/>
</g>
</svg>
