<?xml version="1.0" encoding="utf-8"?>
<!-- Generator: Adobe Illustrator 21.1.0, SVG Export Plug-In . SVG Version: 6.00 Build 0)  -->
<svg version="1.1" id="Capa_1" xmlns="http://www.w3.org/2000/svg" xmlns:xlink="http://www.w3.org/1999/xlink" x="0px" y="0px"
	 viewBox="0 0 341 227" style="enable-background:new 0 0 341 227;" xml:space="preserve">
<style type="text/css">
	.st0{fill:#1C1C1C;}
	.st1{fill:#FFFFFF;}
	.st2{opacity:0.1;}
	.st3{opacity:0.5;}
	.st4{fill:none;stroke:#FFFFFF;stroke-width:0.5;stroke-miterlimit:10;}
	.st5{opacity:0.7;}
	.st6{fill:none;stroke:#FFFFFF;stroke-width:2;stroke-miterlimit:10;}
	.st7{fill:none;stroke:#000000;stroke-miterlimit:10;}
	.st8{fill:#D6D6D6;}
	.st9{fill:#010506;}
	.st10{stroke:#000000;stroke-miterlimit:10;}
	.st11{fill:#1D1D1B;}
</style>
<g class="st5">
	<g>
		<path d="M170,219.7l-162-53V59.3l162-53l0.3,0.1L332,59.3v107.4l-0.9,0.3L170,219.7z"/>
	</g>
</g>
<g transform="translate(0,-952.36223)">
	<path class="st1" d="M217.5,1004.4h-12.4l-4.3,4.3l-3.3-3.3l-1.6,1.6v4l1.5,1.5l-0.6,0.6l-15.2,2h-61.6h-2.6v26.7l-1.7,1.7l3.9,3.9
		v-28.7h1.8v56.5h6.3l-1.6-3.4v-8.1l7.5-10.8l9.8,22.3h6.3l-5.4-9.5v-8l5.3-8.4l19,2.4l-2,23.4h6.3l-0.7-8.2l5.3-11.8l3.6,20h7
		l-3-7.8l0.6-13.8l17-23.2h18.7l3.7-4.7l-16.4-15.8L217.5,1004.4L217.5,1004.4z M192.5,1040h-14.4v-22.3l19.5-2.3L192.5,1040z
		 M147,1017.7l11.6,0v22.3l-11.6,1v-11.7h9.9l-9.9-5V1017.7L147,1017.7z M176.3,1039.8h-15.7v-22.1h15.7V1039.8z M145.3,1023.8
		h-11.6v-6h11.6V1023.8z M132.3,1043.9h-8.8v-26.2h8.8V1043.9z M152,1028.2l-18.3,0.1l0.1-3.3h11.6
		C145.3,1025,152,1028.2,152,1028.2z M145.3,1033.5h-11.6v-4.1h11.6V1033.5z M145.3,1040.4l-11.6,5.7v-11.2h11.6V1040.4z
		 M191.9,1041.2l-4.8,7.5l-9.1,0v-7.5L191.9,1041.2L191.9,1041.2z M176.4,1048.7l-15.9-1.8v-5.7h15.9V1048.7z M158.6,1041.2v5.8
		c0.1,0.1-24.1,0-24.1,0l10.3-4.7L158.6,1041.2L158.6,1041.2z M132.3,1051.7c0.1-0.1-4.4,6.7-4.4,6.7h-4.4V1045h8.9V1051.7z
		 M183.4,1054.2h-3.5l-1.8-4.4h8.4L183.4,1054.2z"/>
</g>
<g>
	<path class="st1" d="M161.4,162.2c0-0.1-0.1-0.2-0.1-0.4c0-0.1-0.1-0.2-0.1-0.4s0-0.4-0.1-0.6c0-0.3,0-0.6,0-1v-3
		c0-0.9-0.2-1.5-0.5-1.9c-0.3-0.4-0.8-0.6-1.5-0.6h-1v7.9h-3v-19.3h4.6c1.6,0,2.7,0.4,3.4,1.1c0.7,0.7,1.1,1.8,1.1,3.3v1.5
		c0,2-0.7,3.3-2,3.9c0.8,0.3,1.3,0.8,1.6,1.5c0.3,0.7,0.4,1.6,0.4,2.6v3c0,0.5,0,0.9,0.1,1.3c0,0.4,0.1,0.7,0.3,1.1H161.4z
		 M158.1,145.7v5.9h1.2c0.6,0,1-0.1,1.3-0.4s0.5-0.8,0.5-1.6v-1.9c0-0.7-0.1-1.2-0.4-1.5s-0.6-0.5-1.2-0.5H158.1z"/>
	<path class="st1" d="M169.2,151.1h4.2v2.8h-4.2v5.6h5.2v2.8h-8.3v-19.3h8.3v2.8h-5.2V151.1z"/>
	<path class="st1" d="M175.9,147.6c0-1.6,0.4-2.8,1.1-3.6s1.9-1.3,3.3-1.3s2.6,0.4,3.3,1.3s1.1,2,1.1,3.6v0.6H182v-0.8
		c0-0.7-0.1-1.2-0.4-1.5c-0.3-0.3-0.6-0.4-1.1-0.4c-0.5,0-0.9,0.1-1.1,0.4c-0.3,0.3-0.4,0.8-0.4,1.5c0,0.7,0.1,1.2,0.4,1.8
		s0.7,1,1.1,1.4c0.4,0.5,0.9,0.9,1.4,1.3c0.5,0.5,1,0.9,1.4,1.5c0.4,0.5,0.8,1.1,1.1,1.8s0.4,1.5,0.4,2.4c0,1.6-0.4,2.8-1.1,3.6
		c-0.8,0.8-1.9,1.3-3.4,1.3c-1.5,0-2.6-0.4-3.4-1.3c-0.8-0.8-1.1-2-1.1-3.6v-1.2h2.9v1.4c0,0.7,0.1,1.2,0.4,1.5s0.7,0.4,1.1,0.4
		s0.9-0.1,1.1-0.4c0.3-0.3,0.4-0.8,0.4-1.5c0-0.7-0.1-1.2-0.4-1.8c-0.3-0.5-0.7-1-1.1-1.4c-0.4-0.5-0.9-0.9-1.4-1.3s-1-0.9-1.4-1.5
		c-0.4-0.5-0.8-1.1-1.1-1.8C176.1,149.3,175.9,148.5,175.9,147.6z"/>
</g>
</svg>
