<?xml version="1.0" encoding="utf-8"?>
<!-- Generator: Adobe Illustrator 21.1.0, SVG Export Plug-In . SVG Version: 6.00 Build 0)  -->
<svg version="1.1" id="Capa_1" xmlns="http://www.w3.org/2000/svg" xmlns:xlink="http://www.w3.org/1999/xlink" x="0px" y="0px"
	 viewBox="0 0 119.1 41.3" style="enable-background:new 0 0 119.1 41.3;" xml:space="preserve">
<style type="text/css">
	.st0{fill:#FFFFFF;}
</style>
<path class="st0" d="M115.9,8.7c-0.7-0.8-1.7-1.4-2.8-1.7c-4.4-1.1-10.1-2.2-19.6-2.3c-4.8-0.1-20.8,1.8-28.1,1.7
	c-7.3-0.1-40.8-1.3-55.6-4C9.5,2.4,9.2,2.3,8.9,2.3C6.8,2.3,5,3.8,4.7,5.9C3.5,13.7,2.4,24,2.3,35.5c0,0.4,0.3,0.7,0.7,0.8
	c12,1.3,25.9,2.1,40.8,2.3c7.1,0.1,14.6,0,21.1-0.2c0.4,0,0.7-0.3,0.8-0.7c-0.5-6.9-0.5-13.1-0.4-18.2c0.1-2.5,2.1-4.6,4.6-4.5
	c2.2,0,8.1,0.9,9.4,1.2c3.6,0.9,7.6,1.6,11.8,1.6c4.4,0,8.5-0.3,12.1-1.4c0.6-0.2,1.3-0.3,1.9-0.3c1.7,0,3.2,0.3,4.4,1.4
	c0.3,0.3,0.7,0.4,1.1,0.4c0.3,0,0.6-0.1,0.9-0.2c2-1.2,3.7-2.9,4.9-4.9c0.3-0.5,0.5-1.1,0.5-1.7C116.8,10.1,116.5,9.3,115.9,8.7z
	 M11.2,6.8c1.3,0,2.4,1.1,2.3,2.4s-1.1,2.4-2.4,2.3c-1.3,0-2.4-1.1-2.3-2.4S9.9,6.8,11.2,6.8z M63.6,36.9
	c-6.2,0.2-13.2,0.3-19.8,0.2c-14.5-0.2-27.7-0.9-39.5-2.2c-0.1,0-0.2-0.1-0.3-0.1c6.8,0.4,47.1,2.6,59.8-0.2l0.1,1.9
	C64,36.7,63.8,36.9,63.6,36.9z M70.8,12.2c-0.7,0.3-1.5,0-1.8-0.7c-0.3-0.7,0-1.5,0.7-1.8c0.7-0.3,1.5,0,1.8,0.7
	C71.7,11.1,71.4,11.9,70.8,12.2z M90.4,12c-0.7,0.3-1.5,0-1.8-0.7c-0.3-0.7,0-1.5,0.7-1.8c0.7-0.3,1.5,0,1.8,0.7
	C91.4,10.9,91.1,11.7,90.4,12z M110.7,12.1c-0.7,0.3-1.5,0-1.8-0.7c-0.3-0.7,0-1.5,0.7-1.8c0.7-0.3,1.5,0,1.8,0.7
	C111.6,11,111.3,11.8,110.7,12.1z"/>
</svg>
