<?xml version="1.0" encoding="utf-8"?>
<!-- Generator: Adobe Illustrator 21.1.0, SVG Export Plug-In . SVG Version: 6.00 Build 0)  -->
<svg version="1.1" id="Capa_1" xmlns="http://www.w3.org/2000/svg" xmlns:xlink="http://www.w3.org/1999/xlink" x="0px" y="0px"
	 viewBox="0 0 160 105" style="enable-background:new 0 0 160 105;" xml:space="preserve">
<style type="text/css">
	.st0{fill:#FFFFFF;}
</style>
<g>
	<g>
		<path d="M80.2,100.4L1,76.8V28.9L80.2,5.3l0.2,0.1l79,23.5v47.8l-0.5,0.1L80.2,100.4z"/>
	</g>
</g>
<g>
	<g>
		<g>
			<path class="st0" d="M46.7,53.1l2.5-16.7h5.1v23.5h-3.5V43l-2.5,16.8h-3.5l-2.7-16.6v16.6h-3.2V36.4H44L46.7,53.1z"/>
			<path class="st0" d="M64,46.3h5.1v3.4H64v6.9h6.4v3.4H60.4V36.4h10.1v3.4H64V46.3z"/>
			<path class="st0" d="M88,59.9h-3.7l-0.6-4.3h-4.5l-0.6,4.3h-3.4l3.8-23.5h5.4L88,59.9z M79.6,52.4h3.6l-1.8-11.9L79.6,52.4z"/>
			<path class="st0" d="M92,36.4h11.4v3.4h-3.9v20.1h-3.7V39.7H92V36.4z"/>
			<path class="st0" d="M107.9,42c0-1.9,0.5-3.4,1.4-4.4c0.9-1,2.3-1.5,4.1-1.5c1.8,0,3.2,0.5,4.1,1.5c0.9,1,1.4,2.5,1.4,4.4v0.7
				h-3.5v-1c0-0.8-0.2-1.4-0.5-1.8c-0.3-0.3-0.8-0.5-1.4-0.5c-0.6,0-1,0.2-1.4,0.5c-0.3,0.3-0.5,0.9-0.5,1.8c0,0.8,0.2,1.5,0.5,2.1
				c0.4,0.6,0.8,1.2,1.3,1.7c0.5,0.5,1.1,1.1,1.7,1.6c0.6,0.5,1.2,1.1,1.7,1.8c0.5,0.6,1,1.4,1.3,2.2c0.4,0.8,0.5,1.8,0.5,2.9
				c0,1.9-0.5,3.4-1.4,4.4c-0.9,1-2.3,1.5-4.1,1.5c-1.8,0-3.2-0.5-4.1-1.5c-0.9-1-1.4-2.5-1.4-4.4v-1.4h3.5v1.7
				c0,0.8,0.2,1.4,0.5,1.8c0.3,0.3,0.8,0.5,1.4,0.5c0.6,0,1-0.2,1.4-0.5c0.3-0.3,0.5-0.9,0.5-1.8c0-0.8-0.2-1.5-0.5-2.1
				c-0.4-0.6-0.8-1.2-1.3-1.7c-0.5-0.5-1.1-1.1-1.7-1.6c-0.6-0.5-1.2-1.1-1.7-1.8c-0.5-0.6-1-1.4-1.3-2.2
				C108,44.1,107.9,43.1,107.9,42z"/>
		</g>
	</g>
	<g>
		<path class="st0" d="M80.2,90.9L10.6,71.6V32.4l69.6-19.3l69.6,19.3v39.2L80.2,90.9z M11.7,70.8l68.5,19l68.5-19V33.3l-68.5-19
			l-68.5,19V70.8z"/>
	</g>
	<g>
		<path class="st0" d="M80.2,88.7L80.2,88.7L12.8,70.4V33.6l0.1,0l67.3-18.3l0,0l67.4,18.3v36.8l-0.1,0L80.2,88.7z M13.1,70.1
			l67.1,18.2l67.1-18.2V33.9L80.2,15.7L13.1,33.9V70.1z"/>
	</g>
	<g>
		<rect x="38.3" y="65.1" class="st0" width="81.2" height="0.2"/>
	</g>
	<path class="st0" d="M90.7,24.7c-0.1-0.1-0.3-0.3-0.5-0.3c-0.8-0.2-1.8-0.4-3.6-0.4c-0.9,0-3.8,0.3-5.1,0.3
		c-1.3,0-7.4-0.2-10.1-0.7c0,0-0.1,0-0.2,0c-0.4,0-0.7,0.3-0.8,0.6c-0.2,1.4-0.4,3.3-0.4,5.4c0,0.1,0.1,0.1,0.1,0.1
		c2.2,0.2,4.7,0.4,7.4,0.4c1.3,0,2.6,0,3.8,0c0.1,0,0.1-0.1,0.1-0.1c-0.1-1.2-0.1-2.4-0.1-3.3c0-0.5,0.4-0.8,0.8-0.8
		c0.4,0,1.5,0.2,1.7,0.2c0.6,0.2,1.4,0.3,2.2,0.3c0.8,0,1.6-0.1,2.2-0.3c0.1,0,0.2-0.1,0.4-0.1c0.3,0,0.6,0.1,0.8,0.3
		c0.1,0,0.1,0.1,0.2,0.1c0.1,0,0.1,0,0.2,0c0.4-0.2,0.7-0.5,0.9-0.9c0.1-0.1,0.1-0.2,0.1-0.3C90.9,25,90.8,24.8,90.7,24.7z
		 M71.7,24.4c0.2,0,0.4,0.2,0.4,0.4c0,0.2-0.2,0.4-0.4,0.4c-0.2,0-0.4-0.2-0.4-0.4S71.5,24.4,71.7,24.4z M81.2,29.8
		c-1.1,0-2.4,0-3.6,0c-2.6,0-5-0.2-7.2-0.4c0,0,0,0,0,0c1.2,0.1,8.6,0.5,10.9,0L81.2,29.8C81.3,29.8,81.3,29.8,81.2,29.8z
		 M82.5,25.3c-0.1,0.1-0.3,0-0.3-0.1c-0.1-0.1,0-0.3,0.1-0.3c0.1-0.1,0.3,0,0.3,0.1C82.7,25.1,82.6,25.3,82.5,25.3z M86.1,25.3
		c-0.1,0.1-0.3,0-0.3-0.1c-0.1-0.1,0-0.3,0.1-0.3c0.1-0.1,0.3,0,0.3,0.1C86.3,25.1,86.2,25.2,86.1,25.3z M89.8,25.3
		c-0.1,0.1-0.3,0-0.3-0.1c-0.1-0.1,0-0.3,0.1-0.3c0.1-0.1,0.3,0,0.3,0.1C90,25.1,89.9,25.3,89.8,25.3z"/>
	<g>
		<path class="st0" d="M43,72.1c0-1.1,0.9-1.9,1.9-1.9c0.8,0,1.2,0.4,1.5,0.8l-0.6,0.3c-0.2-0.3-0.5-0.5-0.9-0.5
			c-0.7,0-1.3,0.6-1.3,1.3c0,0.8,0.5,1.3,1.3,1.3c0.4,0,0.8-0.2,0.9-0.5l0.6,0.3c-0.3,0.4-0.7,0.8-1.5,0.8C43.8,74,43,73.2,43,72.1z
			"/>
		<path class="st0" d="M51.2,74L51,73.2h-1.7L49,74h-0.7l1.5-3.7h0.8L52,74H51.2z M50.1,70.9l-0.7,1.8h1.3L50.1,70.9z"/>
		<path class="st0" d="M56.2,74l-0.8-1.4h-0.6V74h-0.7v-3.7h1.6c0.7,0,1.2,0.5,1.2,1.2c0,0.7-0.4,1-0.9,1.1L57,74H56.2z M56.3,71.4
			c0-0.4-0.3-0.6-0.6-0.6h-0.9V72h0.9C56,72,56.3,71.8,56.3,71.4z"/>
		<path class="st0" d="M61.9,74L60,71.3V74h-0.7v-3.7H60l1.9,2.6v-2.6h0.7V74H61.9z"/>
		<path class="st0" d="M65.1,74v-3.7h2.5v0.6h-1.9v1h1.9v0.6h-1.9v1h1.9V74H65.1z"/>
		<path class="st0" d="M69.8,73.4l0.4-0.5c0.3,0.3,0.7,0.5,1.2,0.5c0.5,0,0.7-0.3,0.7-0.5c0-0.8-2.2-0.3-2.2-1.7
			c0-0.6,0.5-1.1,1.4-1.1c0.6,0,1,0.2,1.4,0.5l-0.4,0.5c-0.3-0.3-0.7-0.4-1.1-0.4c-0.4,0-0.6,0.2-0.6,0.5c0,0.7,2.2,0.3,2.2,1.6
			c0,0.6-0.4,1.1-1.4,1.1C70.6,74,70.1,73.8,69.8,73.4z"/>
		<path class="st0" d="M78,73.4l0.4-0.5c0.3,0.3,0.7,0.5,1.2,0.5c0.5,0,0.7-0.3,0.7-0.5c0-0.8-2.2-0.3-2.2-1.7
			c0-0.6,0.5-1.1,1.4-1.1c0.6,0,1,0.2,1.4,0.5l-0.4,0.5c-0.3-0.3-0.7-0.4-1.1-0.4c-0.4,0-0.6,0.2-0.6,0.5c0,0.7,2.2,0.3,2.2,1.6
			c0,0.6-0.4,1.1-1.4,1.1C78.8,74,78.3,73.8,78,73.4z"/>
		<path class="st0" d="M83.3,74v-3.7h2.5v0.6H84v1h1.9v0.6H84v1h1.9V74H83.3z"/>
		<path class="st0" d="M88.2,74v-3.7h0.7v3.1h1.6V74H88.2z"/>
		<path class="st0" d="M92.9,74v-3.7h2.5v0.6h-1.9v1h1.9v0.6h-1.9v1h1.9V74H92.9z"/>
		<path class="st0" d="M97.6,72.1c0-1.1,0.9-1.9,1.9-1.9c0.8,0,1.2,0.4,1.5,0.8l-0.6,0.3c-0.2-0.3-0.5-0.5-0.9-0.5
			c-0.7,0-1.3,0.6-1.3,1.3c0,0.8,0.5,1.3,1.3,1.3c0.4,0,0.8-0.2,0.9-0.5l0.6,0.3c-0.3,0.4-0.7,0.8-1.5,0.8
			C98.5,74,97.6,73.2,97.6,72.1z"/>
		<path class="st0" d="M104.2,74v-3.1h-1.1v-0.6h2.9v0.6h-1.1V74H104.2z"/>
		<path class="st0" d="M110.5,74l-0.3-0.7h-1.7l-0.3,0.7h-0.7l1.5-3.7h0.8l1.5,3.7H110.5z M109.4,70.9l-0.7,1.8h1.3L109.4,70.9z"/>
		<path class="st0" d="M113.1,73.4l0.4-0.5c0.3,0.3,0.7,0.5,1.2,0.5c0.5,0,0.7-0.3,0.7-0.5c0-0.8-2.2-0.3-2.2-1.7
			c0-0.6,0.5-1.1,1.4-1.1c0.6,0,1,0.2,1.4,0.5l-0.4,0.5c-0.3-0.3-0.7-0.4-1.1-0.4c-0.4,0-0.6,0.2-0.6,0.5c0,0.7,2.2,0.3,2.2,1.6
			c0,0.6-0.4,1.1-1.4,1.1C114,74,113.5,73.8,113.1,73.4z"/>
	</g>
</g>
</svg>
