<?xml version="1.0" encoding="utf-8"?>
<!-- Generator: Adobe Illustrator 21.1.0, SVG Export Plug-In . SVG Version: 6.00 Build 0)  -->
<svg version="1.1" id="Capa_1" xmlns="http://www.w3.org/2000/svg" xmlns:xlink="http://www.w3.org/1999/xlink" x="0px" y="0px"
	 viewBox="0 0 1024 1024" style="enable-background:new 0 0 1024 1024;" xml:space="preserve">
<style type="text/css">
	.st0{fill:#FFFFFF;}
</style>
<g>
	<g>
		<path class="st0" d="M291.6,518.8l16.5-109.5h33.7v154.3h-23V452.9l-16.7,110.7h-23l-18.1-109.1v109.1h-21.2V409.2h33.7
			L291.6,518.8z"/>
		<path class="st0" d="M405.7,474.2h33.4v22h-33.2v45.2h41.8v22h-66.1V409.2h66.1v22h-41.8v43H405.7z"/>
		<path class="st0" d="M563.2,563.5h-24.5l-4.2-28h-29.8l-4.2,28h-22.2l24.6-154.3h35.5L563.2,563.5z M507.8,514.6h23.3l-11.7-78.1
			L507.8,514.6z"/>
		<path class="st0" d="M589.3,409.2h75v22H639v132.2h-24.3V431.3h-25.3V409.2z"/>
		<path class="st0" d="M693.8,446.2c0-12.4,3-22.1,9-28.8s14.8-10,26.8-10c12,0,20.8,3.3,26.8,10s9,16.3,9,28.8v4.9h-23v-6.3
			c0-5.6-1.1-9.6-3.2-11.8s-5.1-3.5-9-3.5c-3.8,0-6.8,1.2-9,3.5c-2.2,2.3-3.2,6.2-3.2,11.8c0,5.3,1.2,9.9,3.6,14
			c2.4,4.1,5.3,7.9,8.8,11.5c3.6,3.6,7.3,7.2,11.4,10.8c4.1,3.6,7.8,7.5,11.4,11.8c3.6,4.3,6.5,9.1,8.8,14.6
			c2.4,5.4,3.6,11.8,3.6,19.1c0,12.6-3.1,22.1-9.2,28.8c-6.1,6.7-15.1,10-27,10s-20.9-3.3-27-10s-9.2-16.3-9.2-28.8v-9.4h23v11
			c0,5.6,1.2,9.4,3.5,11.7c2.3,2.2,5.4,3.3,9.2,3.3s6.8-1.1,9.2-3.3c2.3-2.2,3.5-6.1,3.5-11.7c0-5.3-1.2-9.9-3.6-14
			c-2.4-4.1-5.3-7.9-8.8-11.5c-3.6-3.6-7.3-7.2-11.4-10.8c-4.1-3.6-7.8-7.5-11.4-11.8c-3.6-4.3-6.5-9.1-8.8-14.6
			C695,460,693.8,453.5,693.8,446.2z"/>
	</g>
</g>
<g>
	<path class="st0" d="M512,767.8L54.1,640.8V383.2L512,256.2l457.9,127.1v257.5L512,767.8z M61.3,635.4l450.7,125l450.7-125V388.6
		L512,263.6l-450.7,125V635.4z"/>
</g>
<g>
	<path class="st0" d="M512,753.1l-0.4-0.1L68.7,632.9V391.1l0.8-0.2l442.4-120l0.4,0.1l442.9,120.1v241.7l-0.8,0.2L512,753.1z
		 M71.1,631.1L512,750.7l440.9-119.7V392.9L512,273.3L71.1,392.9V631.1z"/>
</g>
<g>
	<rect x="236.7" y="598.2" class="st0" width="534.1" height="1.2"/>
</g>
<path class="st0" d="M581.2,332.3c-0.8-1-2-1.7-3.3-2c-5.3-1.3-12.1-2.6-23.4-2.7c-5.7-0.1-24.9,2.2-33.6,2
	c-8.7-0.1-48.8-1.6-66.5-4.8c-0.4-0.1-0.7-0.1-1-0.1c-2.5,0-4.7,1.8-5,4.2c-1.4,9.3-2.7,21.6-2.9,35.4c0,0.5,0.4,0.8,0.8,1
	c14.3,1.6,31,2.5,48.8,2.7c8.5,0.1,17.5,0,25.2-0.2c0.5,0,0.8-0.4,1-0.8c-0.6-8.2-0.6-15.7-0.5-21.8c0.1-3,2.5-5.5,5.5-5.4
	c2.6,0,9.7,1.1,11.2,1.4c4.3,1.1,9.1,1.9,14.1,1.9c5.3,0,10.2-0.4,14.5-1.7c0.7-0.2,1.6-0.4,2.3-0.4c2,0,3.8,0.4,5.3,1.7
	c0.4,0.4,0.8,0.5,1.3,0.5c0.4,0,0.7-0.1,1.1-0.2c2.4-1.4,4.4-3.5,5.9-5.9c0.4-0.6,0.6-1.3,0.6-2C582.3,334,581.9,333,581.2,332.3z
	 M456.1,330c1.6,0,2.9,1.3,2.7,2.9c-0.1,1.6-1.3,2.9-2.9,2.7c-1.6,0-2.9-1.3-2.7-2.9C453.3,331.2,454.5,330,456.1,330z M518.7,366
	c-7.4,0.2-15.8,0.4-23.7,0.2c-17.3-0.2-33.1-1.1-47.2-2.6c-0.1,0-0.2-0.1-0.4-0.1c8.1,0.5,56.3,3.1,71.5-0.2l0.1,2.3
	C519.2,365.8,518.9,366,518.7,366z M527.3,336.5c-0.8,0.4-1.8,0-2.2-0.8c-0.4-0.8,0-1.8,0.8-2.2c0.8-0.4,1.8,0,2.2,0.8
	C528.4,335.2,528,336.1,527.3,336.5z M550.7,336.3c-0.8,0.4-1.8,0-2.2-0.8s0-1.8,0.8-2.2c0.8-0.4,1.8,0,2.2,0.8
	C551.9,335,551.6,335.9,550.7,336.3z M575,336.4c-0.8,0.4-1.8,0-2.2-0.8c-0.4-0.8,0-1.8,0.8-2.2c0.8-0.4,1.8,0,2.2,0.8
	C576.1,335.1,575.7,336,575,336.4z"/>
<g>
	<path class="st0" d="M267,644c0-7.5,5.6-12.7,12.8-12.7c4.9,0,8,2.5,9.8,5.5l-3.6,1.9c-1.2-2-3.5-3.6-6.1-3.6
		c-4.8,0-8.4,3.7-8.4,8.8c0,5.1,3.6,8.8,8.4,8.8c2.6,0,5-1.6,6.1-3.6l3.7,1.9c-1.9,2.9-4.9,5.5-9.8,5.5
		C272.7,656.7,267,651.5,267,644z"/>
	<path class="st0" d="M321.4,656.2l-1.8-4.7h-11.2l-1.8,4.7h-4.9l9.6-24.4h5.4l9.6,24.4H321.4z M314.1,636.1l-4.4,11.6h8.7
		L314.1,636.1z"/>
	<path class="st0" d="M354.4,656.2l-5.4-9.1h-4.3v9.1h-4.3v-24.4h10.8c4.8,0,8,3.1,8,7.7c0,4.3-2.9,6.7-5.7,7.2l6,9.6H354.4z
		 M354.8,639.4c0-2.4-1.8-3.8-4.2-3.8h-5.9v7.8h5.9C353,643.3,354.8,641.7,354.8,639.4z"/>
	<path class="st0" d="M391.9,656.2l-12.7-17.5v17.5h-4.3v-24.4h4.4l12.4,17v-17h4.3v24.4H391.9z"/>
	<path class="st0" d="M412.7,656.2v-24.4h16.7v3.8H417v6.3h12.2v3.8H417v6.8h12.4v3.8h-16.7V656.2z"/>
	<path class="st0" d="M443.6,652.7l2.4-3.3c1.7,1.8,4.3,3.3,7.8,3.3s4.9-1.7,4.9-3.3c0-5.1-14.2-1.9-14.2-11c0-4.1,3.6-7.2,8.8-7.2
		c3.8,0,6.9,1.2,9.2,3.3l-2.5,3.2c-1.9-1.9-4.5-2.7-7.1-2.7s-4.2,1.2-4.2,3c0,4.5,14.2,1.7,14.2,10.9c0,4.1-2.9,7.5-9.4,7.5
		C449,656.7,445.8,655,443.6,652.7z"/>
	<path class="st0" d="M497.7,652.7l2.4-3.3c1.7,1.8,4.3,3.3,7.8,3.3s4.9-1.7,4.9-3.3c0-5.1-14.2-1.9-14.2-11c0-4.1,3.6-7.2,8.8-7.2
		c3.8,0,6.9,1.2,9.2,3.3l-2.5,3.2c-1.9-1.9-4.5-2.7-7.1-2.7c-2.5,0-4.2,1.2-4.2,3c0,4.5,14.2,1.7,14.2,10.9c0,4.1-2.9,7.5-9.4,7.5
		C503,656.7,499.8,655,497.7,652.7z"/>
	<path class="st0" d="M532.3,656.2v-24.4h16.7v3.8h-12.4v6.3h12.2v3.8h-12.2v6.8h12.4v3.8h-16.7V656.2z"/>
	<path class="st0" d="M565,656.2v-24.4h4.3v20.7H580v3.8L565,656.2L565,656.2z"/>
	<path class="st0" d="M595.3,656.2v-24.4h16.7v3.8h-12.4v6.3h12.2v3.8h-12.2v6.8h12.4v3.8h-16.7V656.2z"/>
	<path class="st0" d="M626.8,644c0-7.5,5.6-12.7,12.8-12.7c4.9,0,8,2.5,9.8,5.5l-3.7,1.9c-1.2-2-3.5-3.6-6.1-3.6
		c-4.8,0-8.4,3.7-8.4,8.8c0,5.1,3.6,8.8,8.4,8.8c2.6,0,5-1.6,6.1-3.6l3.7,1.9c-1.9,2.9-4.9,5.5-9.8,5.5
		C632.4,656.7,626.8,651.5,626.8,644z"/>
	<path class="st0" d="M670,656.2v-20.7h-7.4v-3.8h19.1v3.8h-7.4v20.7H670z"/>
	<path class="st0" d="M711.5,656.2l-1.8-4.7h-11.2l-1.8,4.7h-4.9l9.6-24.4h5.4l9.6,24.4H711.5z M704.1,636.1l-4.4,11.6h8.7
		L704.1,636.1z"/>
	<path class="st0" d="M728.5,652.7l2.4-3.3c1.7,1.8,4.3,3.3,7.8,3.3s4.9-1.7,4.9-3.3c0-5.1-14.2-1.9-14.2-11c0-4.1,3.6-7.2,8.8-7.2
		c3.8,0,6.9,1.2,9.2,3.3l-2.5,3.2c-1.9-1.9-4.5-2.7-7.1-2.7c-2.5,0-4.2,1.2-4.2,3c0,4.5,14.2,1.7,14.2,10.9c0,4.1-2.9,7.5-9.4,7.5
		C733.9,656.7,730.7,655,728.5,652.7z"/>
</g>
<g>
	<path class="st0" d="M955.8,696.7l-4.5-7.1h-3.6v7.1h-2.2v-17.8h7.2c3.2,0,5.6,2,5.6,5.4c0,3.2-2.2,4.9-4.7,5.1l4.8,7.3
		L955.8,696.7L955.8,696.7z M955.9,684.3c0-2-1.4-3.3-3.6-3.3h-4.7v6.8h4.7C954.4,687.6,955.9,686.3,955.9,684.3z"/>
</g>
<g>
	<path class="st0" d="M951.7,704.2c-9.2,0-16.7-7.5-16.7-16.7s7.5-16.7,16.7-16.7s16.7,7.5,16.7,16.7S960.9,704.2,951.7,704.2z
		 M951.7,673.1c-7.9,0-14.3,6.4-14.3,14.3s6.4,14.3,14.3,14.3s14.3-6.4,14.3-14.3S959.6,673.1,951.7,673.1z"/>
</g>
</svg>
