<?xml version="1.0" encoding="utf-8"?>
<!-- Generator: Adobe Illustrator 21.1.0, SVG Export Plug-In . SVG Version: 6.00 Build 0)  -->
<svg version="1.1" id="Capa_1" xmlns="http://www.w3.org/2000/svg" xmlns:xlink="http://www.w3.org/1999/xlink" x="0px" y="0px"
	 viewBox="0 0 35 32" style="enable-background:new 0 0 35 32;" xml:space="preserve">
<style type="text/css">
	.st0{fill:#1C1C1C;}
	.st1{fill:#FFFFFF;}
	.st2{opacity:0.1;}
	.st3{opacity:0.5;}
	.st4{fill:none;stroke:#FFFFFF;stroke-width:0.5;stroke-miterlimit:10;}
	.st5{opacity:0.7;}
	.st6{fill:none;stroke:#FFFFFF;stroke-width:2;stroke-miterlimit:10;}
	.st7{fill:none;stroke:#000000;stroke-miterlimit:10;}
	.st8{fill:#D6D6D6;}
	.st9{fill:#010506;}
	.st10{stroke:#000000;stroke-miterlimit:10;}
	.st11{fill:#1D1D1B;}
</style>
<g>
	<g>
		<g id="Nuva_Logo_23_">
			<path class="st1" d="M15.5,30c-0.2,0.1-0.5,0-0.7-0.1l-9.9-6.7c-0.2-0.1-0.3-0.4-0.4-0.6L3.7,10.6c0-0.2,0.1-0.5,0.3-0.7l8.8-8.1
				c0.2-0.2,0.5-0.2,0.7-0.2l11.8,1.8c0.2,0,0.5,0.2,0.6,0.4l6,10.4c0.1,0.2,0.1,0.5,0.1,0.7l-4.4,11.1c-0.1,0.2-0.3,0.4-0.5,0.5
				L15.5,30L15.5,30z M21.5,20.3c0.2-0.1,0.5-0.3,0.5-0.5l1.9-4.8c0.1-0.2,0.1-0.5-0.1-0.7l-2.6-4.5c-0.1-0.2-0.4-0.4-0.6-0.4
				l-5.1-0.8c-0.2,0-0.5,0.1-0.7,0.2l-3.8,3.5c-0.2,0.2-0.3,0.5-0.3,0.7l0.4,5.1c0,0.2,0.2,0.5,0.4,0.6l4.2,2.9
				c0.2,0.1,0.5,0.2,0.7,0.1L21.5,20.3L21.5,20.3z"/>
		</g>
	</g>
</g>
</svg>
